<?xml version="1.0" encoding="UTF-8"?>
<!DOCTYPE svg PUBLIC "-//W3C//DTD SVG 1.1//EN" "http://www.w3.org/Graphics/SVG/1.1/DTD/svg11.dtd">
<!-- Creator: CorelDRAW X8 -->
<svg xmlns="http://www.w3.org/2000/svg" xml:space="preserve" width="50mm" height="50mm" version="1.1" style="shape-rendering:geometricPrecision; text-rendering:geometricPrecision; image-rendering:optimizeQuality; fill-rule:evenodd; clip-rule:evenodd"
viewBox="0 0 5000 5000"
 xmlns:xlink="http://www.w3.org/1999/xlink">
 <defs>
  <style type="text/css">
   <![CDATA[
    .str0 {stroke:#FEFEFE;stroke-width:75}
    .str1 {stroke:#FEFEFE;stroke-width:7.62}
    .fil0 {fill:none}
    .fil1 {fill:#FEFEFE;fill-rule:nonzero}
   ]]>
  </style>
 </defs>
 <g id="Слой_x0020_1">
  <metadata id="CorelCorpID_0Corel-Layer"/>
  <circle class="fil0 str0" cx="2520" cy="2517" r="2086"/>
  <path class="fil1 str1" d="M2680 1410c0,54 -19,99 -57,136 -38,36 -84,54 -137,54 -54,0 -99,-18 -138,-54 -38,-37 -57,-82 -57,-136 0,-53 19,-99 57,-137 39,-39 84,-58 138,-58 53,0 99,19 137,58 38,38 57,84 57,137zm446 2236c0,86 -43,129 -128,129l-513 0c-85,0 -128,-43 -128,-129l0 -1407 -384 0c-85,0 -128,-43 -128,-129 0,-86 43,-129 128,-129l515 0c84,0 127,42 127,128l0 1408 384 0c85,0 127,43 127,129z"/>
 </g>
</svg>
