<?xml version="1.0" encoding="UTF-8"?>
<!DOCTYPE svg PUBLIC "-//W3C//DTD SVG 1.1//EN" "http://www.w3.org/Graphics/SVG/1.1/DTD/svg11.dtd">
<!-- Creator: CorelDRAW X8 -->
<svg xmlns="http://www.w3.org/2000/svg" xml:space="preserve" width="200mm" height="200mm" version="1.1" style="shape-rendering:geometricPrecision; text-rendering:geometricPrecision; image-rendering:optimizeQuality; fill-rule:evenodd; clip-rule:evenodd"
viewBox="0 0 20000 20000"
 xmlns:xlink="http://www.w3.org/1999/xlink">
 <defs>
  <style type="text/css">
   <![CDATA[
    .str7 {stroke:#AD4714;stroke-width:84.66}
    .str4 {stroke:#AD4714;stroke-width:42.33}
    .str0 {stroke:black;stroke-width:20}
    .str5 {stroke:#BBFF9E;stroke-width:550.33}
    .str6 {stroke:#FE6C69;stroke-width:550.33}
    .str2 {stroke:#AD4714;stroke-width:110.06}
    .str1 {stroke:#AD4714;stroke-width:110.06}
    .str3 {stroke:#AD4714;stroke-width:110.07;stroke-linejoin:round}
    .fil4 {fill:none}
    .fil11 {fill:none;fill-rule:nonzero}
    .fil6 {fill:#AD4714}
    .fil0 {fill:#BBFF9E}
    .fil3 {fill:#F2D7C1}
    .fil5 {fill:#F2D7C1}
    .fil1 {fill:#FE6C69}
    .fil9 {fill:#FF7F57}
    .fil8 {fill:#FFAB89}
    .fil2 {fill:#FFF3D6}
    .fil7 {fill:#FFF3D6}
    .fil10 {fill:#FFF3D6;fill-rule:nonzero}
   ]]>
  </style>
     <mask id="id0">
  <linearGradient id="id1" gradientUnits="userSpaceOnUse" x1="3832.77" y1="2716.52" x2="16234.8" y2="17225.9">
   <stop offset="0" style="stop-opacity:1; stop-color:white"/>
   <stop offset="1" style="stop-opacity:0; stop-color:white"/>
  </linearGradient>
      <rect style="fill:url(#id1)" x="436" y="454" width="19127" height="19093"/>
     </mask>
     <mask id="id2">
  <linearGradient id="id3" gradientUnits="userSpaceOnUse" x1="16660.8" y1="16999.7" x2="4132.14" y2="2473.83">
   <stop offset="0" style="stop-opacity:1; stop-color:white"/>
   <stop offset="1" style="stop-opacity:0; stop-color:white"/>
  </linearGradient>
      <rect style="fill:url(#id3)" x="171" y="188" width="19658" height="19623"/>
     </mask>
 </defs>
 <g id="Слой_x0020_1">
  <metadata id="CorelCorpID_0Corel-Layer"/>
  <g id="Круголямба">
   <g id="ЗАЛИВ">
    <ellipse class="fil0 str0" cx="10000" cy="10000" rx="9554" ry="9536"/>
    <path class="fil1 str0" style="mask:url(#id0)" d="M10000 464c5276,0 9554,4269 9554,9536 0,5267 -4278,9536 -9554,9536 -5276,0 -9554,-4269 -9554,-9536 0,-5267 4278,-9536 9554,-9536z"/>
   </g>
   <g id="Кролъ">
    <path class="fil2" d="M10062 19695c-55,-2051 916,-5165 1633,-7052 -1027,-2375 -3352,-7229 -802,-8661 1033,-372 2363,732 2621,3036 161,-1508 523,-2647 1542,-2507 1844,255 1746,3987 1093,7126 1094,841 1553,2723 1905,3846l-2610 2575 -5382 1637z"/>
    <path class="fil3" d="M14046 11432l-348 115c-80,-2005 -174,-6700 -2584,-7602 1081,-253 2175,1310 2375,3022 37,319 105,786 152,1109 184,1244 326,2489 405,3356z"/>
    <path class="fil4 str1" d="M14046 11432c-65,-2545 -567,-3520 -559,-4624"/>
    <path class="fil5" d="M14874 4500c2044,999 1424,4661 866,7150 1322,1133 1630,2766 2048,4095l266 -262c-331,-833 -573,-2679 -1905,-3846 469,-2644 1043,-6866 -1275,-7137z"/>
    <path class="fil5" d="M17634 14136c-393,591 -1135,1265 -1074,1759 23,191 881,-86 1018,58 254,-251 343,-339 476,-470 -95,-310 -365,-1066 -420,-1347z"/>
    <path class="fil4 str2" d="M10062 19695c-55,-2051 916,-5165 1633,-7052 -1027,-2375 -3446,-7410 -802,-8661 972,-460 2363,732 2621,3036 161,-1508 523,-2647 1542,-2507 1844,255 1746,3987 1093,7126 1094,841 1553,2723 1905,3846l-2610 2575 -5382 1637z"/>
    <g id="Глаза">
     <ellipse class="fil6" cx="13376" cy="13783" rx="335" ry="331"/>
     <circle class="fil7" cx="13274" cy="13725" r="128"/>
     <ellipse class="fil6" cx="15625" cy="13624" rx="335" ry="331"/>
     <circle class="fil7" cx="15514" cy="13553" r="128"/>
    </g>
    <g id="Ухо1">
     <path class="fil8" d="M13336 11624c-141,-2600 -238,-6736 -2063,-6491 -1482,514 -841,4438 1058,7020 282,-441 782,-520 1005,-529z"/>
     <path class="fil9" d="M13084 11657c-160,-1151 77,-3365 -1027,-3402 -369,-12 -682,450 -388,1852 -1106,-2067 -1046,-4868 203,-4868 -604,-365 -1385,82 -1416,1763 8,1849 1188,4334 1875,5151 427,-562 588,-428 753,-496z"/>
     <path class="fil4 str3" d="M13336 11624c-141,-2600 -238,-6736 -2063,-6491 -1482,514 -841,4438 1058,7020 282,-441 782,-520 1005,-529z"/>
    </g>
    <g id="Ухо2">
     <path class="fil8" d="M14694 11421c-543,-2372 -690,-5583 256,-5671 1233,53 1179,2364 609,5830 -324,-141 -420,-165 -865,-159z"/>
     <path class="fil9" d="M15346 11493c20,-829 412,-2343 -206,-2594 -200,-81 -399,195 -419,948 -333,-1766 -331,-3779 668,-3949 -486,-400 -1048,103 -1090,1153 -163,1664 180,3019 395,4370 217,0 409,-35 652,72z"/>
     <path class="fil4 str3" d="M14694 11421c-543,-2372 -690,-5583 256,-5671 1233,53 1179,2364 609,5830 -324,-141 -420,-165 -865,-159z"/>
    </g>
    <path class="fil4 str4" d="M13926 14975c125,256 627,132 633,-331 13,463 478,578 635,212"/>
    <path id="НОС" class="fil9" d="M14559 14672c-51,0 -385,-116 -354,-259 42,-196 674,-173 696,-13 17,117 -292,272 -342,272z"/>
   </g>
   <g id="АБР">
    <ellipse class="fil4 str5" cx="10000" cy="10000" rx="9554" ry="9536"/>
    <path class="fil4 str6" style="mask:url(#id2)" d="M10000 464c5276,0 9554,4269 9554,9536 0,5267 -4278,9536 -9554,9536 -5276,0 -9554,-4269 -9554,-9536 0,-5267 4278,-9536 9554,-9536z"/>
   </g>
   <g id="Лапа1">
    <path class="fil7" d="M11122 19169l2987 -989 69 263c-94,251 -315,541 -889,865 -520,323 -1546,-47 -2167,-139z"/>
    <path class="fil5" d="M11122 19169c385,-72 1063,260 1738,99 724,-172 1122,-796 1314,-880 70,162 -492,814 -1194,1055 -397,131 -1287,-131 -1858,-274z"/>
    <path class="fil5" d="M12431 16745c302,620 942,839 1304,1027 -240,-136 -425,-208 -699,-162 -308,-46 -520,-235 -605,-865z"/>
    <path class="fil4 str7" d="M12431 16745c82,813 522,868 630,852 677,-76 1184,601 1106,871 -86,298 -529,689 -1070,932 -542,243 -1391,-118 -1975,-231"/>
    <path class="fil4 str7" d="M12242 18124c251,-310 546,-385 819,-527"/>
   </g>
   <g id="Лапа2">
    <path class="fil7" d="M16872 15382c-376,-621 72,-1182 507,-1459 435,-278 947,-188 1116,35 375,391 141,773 -384,1252 -479,477 -1064,461 -1239,172z"/>
    <path class="fil5" d="M16819 14529c-44,414 69,635 388,765 320,130 1028,-439 1466,-867 -27,238 -345,606 -672,883 -237,201 -480,277 -748,274 -199,-17 -369,-111 -463,-369 -48,-172 -100,-431 29,-686z"/>
    <path class="fil4 str7" d="M16872 15382c-376,-621 72,-1182 507,-1459 435,-278 947,-188 1116,35 375,391 141,773 -384,1252 -479,477 -1064,461 -1239,172z"/>
   </g>
  </g>
  <polygon class="fil10" points="3566,4976 3812,4976 4399,5868 4399,4976 4657,4976 4657,6332 4409,6332 3824,5442 3824,6332 3566,6332 "/>
  <path id="1" class="fil10" d="M5413 5304c96,0 185,24 269,71 84,47 149,111 196,192 47,81 71,169 71,262 0,95 -24,183 -71,265 -48,82 -112,146 -194,193 -82,46 -171,69 -270,69 -145,0 -268,-51 -370,-153 -103,-102 -154,-226 -154,-372 0,-156 58,-286 174,-391 101,-90 217,-136 349,-136zm4 236c-79,0 -144,28 -196,82 -52,54 -79,123 -79,208 0,87 26,157 78,211 51,54 117,81 196,81 79,0 145,-27 198,-82 52,-54 79,-124 79,-210 0,-86 -26,-155 -78,-209 -51,-54 -118,-81 -198,-81z"/>
  <polygon id="2" class="fil10" points="6184,4959 6437,4959 6437,5329 6587,5329 6587,5546 6437,5546 6437,6332 6184,6332 6184,5546 6055,5546 6055,5329 6184,5329 "/>
  <polygon id="3" class="fil10" points="3431,7265 4185,7265 4185,7520 3936,7520 3936,8621 3672,8621 3672,7520 3431,7520 "/>
  <path id="4" class="fil10" d="M5341 8190l-811 0c12,72 43,129 94,171 50,42 115,63 193,63 95,0 175,-33 243,-99l212 100c-53,75 -116,130 -190,167 -74,35 -162,53 -263,53 -158,0 -286,-49 -385,-148 -99,-99 -149,-223 -149,-372 0,-152 50,-279 149,-380 99,-101 223,-151 372,-151 159,0 288,50 387,150 99,101 149,234 149,399l-1 47zm-251 -196c-17,-55 -50,-99 -99,-134 -49,-34 -106,-51 -171,-51 -71,0 -133,19 -186,58 -33,24 -64,66 -93,127l549 0z"/>
  <path id="5" class="fil10" d="M6164 7760l-156 157c-63,-63 -121,-95 -173,-95 -28,0 -50,6 -66,18 -16,12 -24,27 -24,44 0,14 5,26 15,38 10,11 35,26 76,46l92 46c97,48 164,96 201,146 36,50 54,107 54,174 0,89 -33,163 -99,222 -65,60 -154,89 -264,89 -147,0 -265,-57 -352,-171l156 -168c29,34 64,62 104,83 40,21 76,32 107,32 33,0 60,-8 80,-24 21,-16 31,-35 31,-55 0,-39 -37,-77 -110,-113l-86 -43c-163,-81 -244,-183 -244,-306 0,-79 30,-146 92,-202 61,-56 139,-84 235,-84 65,0 127,14 185,43 57,28 106,70 146,123z"/>
  <polygon id="6" class="fil10" points="6413,7248 6665,7248 6665,7618 6815,7618 6815,7835 6665,7835 6665,8621 6413,8621 6413,7835 6284,7835 6284,7618 6413,7618 "/>
  <path id="7" class="fil10" d="M7960 8190l-811 0c11,72 43,129 93,171 51,42 116,63 194,63 94,0 175,-33 243,-99l212 100c-53,75 -117,130 -191,167 -74,35 -161,53 -263,53 -157,0 -286,-49 -385,-148 -99,-99 -148,-223 -148,-372 0,-152 49,-279 148,-380 99,-101 223,-151 373,-151 158,0 287,50 387,150 99,101 149,234 149,399l-1 47zm-252 -196c-16,-55 -49,-99 -98,-134 -50,-34 -107,-51 -172,-51 -70,0 -132,19 -185,58 -34,24 -65,66 -93,127l548 0z"/>
  <path id="8" class="fil10" d="M8912 7231l252 0 0 1390 -252 0 0 -107c-50,47 -99,80 -149,101 -50,20 -104,30 -162,30 -130,0 -243,-50 -338,-150 -95,-100 -143,-225 -143,-374 0,-154 47,-281 139,-379 92,-99 203,-148 335,-148 61,0 117,11 170,33 53,23 103,57 148,102l0 -498zm-266 593c-79,0 -144,27 -195,82 -52,55 -78,126 -78,212 0,86 26,157 79,213 53,56 118,84 195,84 79,0 145,-27 197,-82 53,-55 79,-127 79,-216 0,-87 -26,-158 -79,-212 -52,-54 -118,-81 -198,-81z"/>
  <path id="9" class="fil10" d="M4206 9520c193,0 359,70 497,209 139,138 208,308 208,507 0,198 -68,366 -205,503 -136,136 -302,205 -498,205 -204,0 -374,-70 -509,-211 -135,-141 -203,-308 -203,-501 0,-130 31,-249 94,-358 63,-109 150,-195 260,-258 110,-64 229,-96 356,-96zm-3 253c-126,0 -231,44 -317,131 -86,87 -128,198 -128,333 0,150 53,268 161,356 84,68 180,102 288,102 123,0 227,-45 313,-133 87,-88 130,-197 130,-327 0,-129 -44,-238 -131,-328 -86,-89 -192,-134 -316,-134z"/>
  <path id="10" class="fil10" d="M5129 9907l253 0 0 104c57,-48 109,-81 156,-100 46,-19 94,-28 143,-28 99,0 185,34 254,104 59,59 88,146 88,261l0 662 -250 0 0 -438c0,-120 -6,-199 -17,-238 -10,-40 -29,-69 -56,-90 -27,-20 -60,-31 -99,-31 -51,0 -95,17 -132,51 -37,34 -62,81 -76,141 -8,32 -11,99 -11,204l0 401 -253 0 0 -1003z"/>
  <path id="11" class="fil10" d="M3981 11844l261 0 524 1355 -270 0 -106 -279 -558 0 -109 279 -270 0 528 -1355zm131 360l-185 467 368 0 -183 -467z"/>
  <path id="12" class="fil10" d="M4939 12197l253 0 0 103c57,-48 109,-81 156,-100 46,-18 94,-28 142,-28 100,0 185,35 255,104 59,59 88,146 88,261l0 662 -250 0 0 -438c0,-120 -6,-199 -17,-238 -10,-39 -29,-69 -56,-90 -27,-20 -60,-31 -99,-31 -51,0 -95,17 -132,51 -37,34 -62,82 -76,141 -8,32 -11,100 -11,204l0 401 -253 0 0 -1002z"/>
  <path id="13" class="fil10" d="M6178 11785c45,0 83,16 114,48 32,32 48,70 48,115 0,45 -16,83 -47,115 -31,31 -69,47 -113,47 -45,0 -83,-16 -115,-48 -32,-32 -48,-72 -48,-117 0,-45 16,-82 47,-113 32,-31 70,-47 114,-47zm-126 412l252 0 0 1002 -252 0 0 -1002z"/>
  <path id="14" class="fil10" d="M6531 12197l252 0 0 117c44,-48 92,-83 145,-107 53,-23 111,-35 173,-35 63,0 120,15 171,46 51,31 92,76 123,136 40,-60 89,-105 148,-136 58,-31 122,-46 192,-46 71,0 135,17 189,50 55,33 94,76 118,129 23,54 35,141 35,261l0 587 -252 0 0 -506c0,-114 -14,-190 -43,-230 -29,-40 -72,-61 -129,-61 -44,0 -83,13 -118,37 -35,24 -61,58 -77,102 -17,43 -26,112 -26,208l0 450 -252 0 0 -483c0,-90 -7,-155 -20,-195 -14,-40 -34,-69 -60,-89 -27,-20 -60,-30 -98,-30 -42,0 -81,13 -115,38 -35,24 -61,59 -78,104 -17,44 -26,115 -26,211l0 444 -252 0 0 -1002z"/>
  <path id="15" class="fil10" d="M9062 12197l253 0 0 1002 -253 0 0 -106c-49,46 -99,80 -148,100 -50,20 -104,31 -162,31 -131,0 -243,-50 -338,-151 -96,-100 -143,-224 -143,-373 0,-155 46,-281 138,-380 92,-99 204,-148 335,-148 61,0 118,11 171,34 53,22 102,56 147,101l0 -110zm-266 205c-78,0 -143,28 -195,83 -52,55 -78,125 -78,211 0,87 27,158 79,214 53,55 118,83 195,83 80,0 146,-27 198,-82 52,-55 79,-127 79,-216 0,-87 -27,-158 -79,-212 -52,-53 -119,-81 -199,-81z"/>
  <polygon id="16" class="fil10" points="9543,11810 9795,11810 9795,13199 9543,13199 "/>
  <path id="17" class="fil10" d="M10641 12339l-157 156c-63,-63 -120,-94 -172,-94 -28,0 -50,6 -67,17 -16,12 -24,27 -24,45 0,13 5,26 16,37 10,11 35,27 75,47l92 46c98,47 165,96 201,145 37,50 55,108 55,175 0,88 -33,163 -99,222 -66,59 -154,89 -265,89 -146,0 -264,-57 -352,-171l156 -169c30,34 65,62 105,83 40,21 75,32 106,32 33,0 61,-8 81,-24 20,-16 30,-34 30,-55 0,-39 -36,-76 -110,-113l-85 -42c-163,-82 -245,-184 -245,-306 0,-79 31,-147 92,-203 62,-56 140,-84 236,-84 65,0 126,15 184,43 58,29 107,70 147,124z"/>
  <polygon id="18" class="fil11 str7" points="3566,4976 3812,4976 4399,5868 4399,4976 4657,4976 4657,6332 4409,6332 3824,5442 3824,6332 3566,6332 "/>
  <path id="19" class="fil11 str7" d="M5413 5304c96,0 185,24 269,71 84,47 149,111 196,192 47,81 71,169 71,262 0,95 -24,183 -71,265 -48,82 -112,146 -194,193 -82,46 -171,69 -270,69 -145,0 -268,-51 -370,-153 -103,-102 -154,-226 -154,-372 0,-156 58,-286 174,-391 101,-90 217,-136 349,-136zm4 236c-79,0 -144,28 -196,82 -52,54 -79,123 -79,208 0,87 26,157 78,211 51,54 117,81 196,81 79,0 145,-27 198,-82 52,-54 79,-124 79,-210 0,-86 -26,-155 -78,-209 -51,-54 -118,-81 -198,-81z"/>
  <polygon id="20" class="fil11 str7" points="6184,4959 6437,4959 6437,5329 6587,5329 6587,5546 6437,5546 6437,6332 6184,6332 6184,5546 6055,5546 6055,5329 6184,5329 "/>
  <polygon id="21" class="fil11 str7" points="3431,7265 4185,7265 4185,7520 3936,7520 3936,8621 3672,8621 3672,7520 3431,7520 "/>
  <path id="22" class="fil11 str7" d="M5341 8190l-811 0c12,72 43,129 94,171 50,42 115,63 193,63 95,0 175,-33 243,-99l212 100c-53,75 -116,130 -190,167 -74,35 -162,53 -263,53 -158,0 -286,-49 -385,-148 -99,-99 -149,-223 -149,-372 0,-152 50,-279 149,-380 99,-101 223,-151 372,-151 159,0 288,50 387,150 99,101 149,234 149,399l-1 47zm-251 -196c-17,-55 -50,-99 -99,-134 -49,-34 -106,-51 -171,-51 -71,0 -133,19 -186,58 -33,24 -64,66 -93,127l549 0z"/>
  <path id="23" class="fil11 str7" d="M6164 7760l-156 157c-63,-63 -121,-95 -173,-95 -28,0 -50,6 -66,18 -16,12 -24,27 -24,44 0,14 5,26 15,38 10,11 35,26 76,46l92 46c97,48 164,96 201,146 36,50 54,107 54,174 0,89 -33,163 -99,222 -65,60 -154,89 -264,89 -147,0 -265,-57 -352,-171l156 -168c29,34 64,62 104,83 40,21 76,32 107,32 33,0 60,-8 80,-24 21,-16 31,-35 31,-55 0,-39 -37,-77 -110,-113l-86 -43c-163,-81 -244,-183 -244,-306 0,-79 30,-146 92,-202 61,-56 139,-84 235,-84 65,0 127,14 185,43 57,28 106,70 146,123z"/>
  <polygon id="24" class="fil11 str7" points="6413,7248 6665,7248 6665,7618 6815,7618 6815,7835 6665,7835 6665,8621 6413,8621 6413,7835 6284,7835 6284,7618 6413,7618 "/>
  <path id="25" class="fil11 str7" d="M7960 8190l-811 0c11,72 43,129 93,171 51,42 116,63 194,63 94,0 175,-33 243,-99l212 100c-53,75 -117,130 -191,167 -74,35 -161,53 -263,53 -157,0 -286,-49 -385,-148 -99,-99 -148,-223 -148,-372 0,-152 49,-279 148,-380 99,-101 223,-151 373,-151 158,0 287,50 387,150 99,101 149,234 149,399l-1 47zm-252 -196c-16,-55 -49,-99 -98,-134 -50,-34 -107,-51 -172,-51 -70,0 -132,19 -185,58 -34,24 -65,66 -93,127l548 0z"/>
  <path id="26" class="fil11 str7" d="M8912 7231l252 0 0 1390 -252 0 0 -107c-50,47 -99,80 -149,101 -50,20 -104,30 -162,30 -130,0 -243,-50 -338,-150 -95,-100 -143,-225 -143,-374 0,-154 47,-281 139,-379 92,-99 203,-148 335,-148 61,0 117,11 170,33 53,23 103,57 148,102l0 -498zm-266 593c-79,0 -144,27 -195,82 -52,55 -78,126 -78,212 0,86 26,157 79,213 53,56 118,84 195,84 79,0 145,-27 197,-82 53,-55 79,-127 79,-216 0,-87 -26,-158 -79,-212 -52,-54 -118,-81 -198,-81z"/>
  <path id="27" class="fil11 str7" d="M4206 9520c193,0 359,70 497,209 139,138 208,308 208,507 0,198 -68,366 -205,503 -136,136 -302,205 -498,205 -204,0 -374,-70 -509,-211 -135,-141 -203,-308 -203,-501 0,-130 31,-249 94,-358 63,-109 150,-195 260,-258 110,-64 229,-96 356,-96zm-3 253c-126,0 -231,44 -317,131 -86,87 -128,198 -128,333 0,150 53,268 161,356 84,68 180,102 288,102 123,0 227,-45 313,-133 87,-88 130,-197 130,-327 0,-129 -44,-238 -131,-328 -86,-89 -192,-134 -316,-134z"/>
  <path id="28" class="fil11 str7" d="M5129 9907l253 0 0 104c57,-48 109,-81 156,-100 46,-19 94,-28 143,-28 99,0 185,34 254,104 59,59 88,146 88,261l0 662 -250 0 0 -438c0,-120 -6,-199 -17,-238 -10,-40 -29,-69 -56,-90 -27,-20 -60,-31 -99,-31 -51,0 -95,17 -132,51 -37,34 -62,81 -76,141 -8,32 -11,99 -11,204l0 401 -253 0 0 -1003z"/>
  <path id="29" class="fil11 str7" d="M3981 11844l261 0 524 1355 -270 0 -106 -279 -558 0 -109 279 -270 0 528 -1355zm131 360l-185 467 368 0 -183 -467z"/>
  <path id="30" class="fil11 str7" d="M4939 12197l253 0 0 103c57,-48 109,-81 156,-100 46,-18 94,-28 142,-28 100,0 185,35 255,104 59,59 88,146 88,261l0 662 -250 0 0 -438c0,-120 -6,-199 -17,-238 -10,-39 -29,-69 -56,-90 -27,-20 -60,-31 -99,-31 -51,0 -95,17 -132,51 -37,34 -62,82 -76,141 -8,32 -11,100 -11,204l0 401 -253 0 0 -1002z"/>
  <path id="31" class="fil11 str7" d="M6178 11785c45,0 83,16 114,48 32,32 48,70 48,115 0,45 -16,83 -47,115 -31,31 -69,47 -113,47 -45,0 -83,-16 -115,-48 -32,-32 -48,-72 -48,-117 0,-45 16,-82 47,-113 32,-31 70,-47 114,-47zm-126 412l252 0 0 1002 -252 0 0 -1002z"/>
  <path id="32" class="fil11 str7" d="M6531 12197l252 0 0 117c44,-48 92,-83 145,-107 53,-23 111,-35 173,-35 63,0 120,15 171,46 51,31 92,76 123,136 40,-60 89,-105 148,-136 58,-31 122,-46 192,-46 71,0 135,17 189,50 55,33 94,76 118,129 23,54 35,141 35,261l0 587 -252 0 0 -506c0,-114 -14,-190 -43,-230 -29,-40 -72,-61 -129,-61 -44,0 -83,13 -118,37 -35,24 -61,58 -77,102 -17,43 -26,112 -26,208l0 450 -252 0 0 -483c0,-90 -7,-155 -20,-195 -14,-40 -34,-69 -60,-89 -27,-20 -60,-30 -98,-30 -42,0 -81,13 -115,38 -35,24 -61,59 -78,104 -17,44 -26,115 -26,211l0 444 -252 0 0 -1002z"/>
  <path id="33" class="fil11 str7" d="M9062 12197l253 0 0 1002 -253 0 0 -106c-49,46 -99,80 -148,100 -50,20 -104,31 -162,31 -131,0 -243,-50 -338,-151 -96,-100 -143,-224 -143,-373 0,-155 46,-281 138,-380 92,-99 204,-148 335,-148 61,0 118,11 171,34 53,22 102,56 147,101l0 -110zm-266 205c-78,0 -143,28 -195,83 -52,55 -78,125 -78,211 0,87 27,158 79,214 53,55 118,83 195,83 80,0 146,-27 198,-82 52,-55 79,-127 79,-216 0,-87 -27,-158 -79,-212 -52,-53 -119,-81 -199,-81z"/>
  <polygon id="34" class="fil11 str7" points="9543,11810 9795,11810 9795,13199 9543,13199 "/>
  <path id="35" class="fil11 str7" d="M10641 12339l-157 156c-63,-63 -120,-94 -172,-94 -28,0 -50,6 -67,17 -16,12 -24,27 -24,45 0,13 5,26 16,37 10,11 35,27 75,47l92 46c98,47 165,96 201,145 37,50 55,108 55,175 0,88 -33,163 -99,222 -66,59 -154,89 -265,89 -146,0 -264,-57 -352,-171l156 -169c30,34 65,62 105,83 40,21 75,32 106,32 33,0 61,-8 81,-24 20,-16 30,-34 30,-55 0,-39 -36,-76 -110,-113l-85 -42c-163,-82 -245,-184 -245,-306 0,-79 31,-147 92,-203 62,-56 140,-84 236,-84 65,0 126,15 184,43 58,29 107,70 147,124z"/>
 </g>
</svg>
