<?xml version="1.0" encoding="UTF-8"?>
<!DOCTYPE svg PUBLIC "-//W3C//DTD SVG 1.1//EN" "http://www.w3.org/Graphics/SVG/1.1/DTD/svg11.dtd">
<!-- Creator: CorelDRAW X8 -->
<svg xmlns="http://www.w3.org/2000/svg" xml:space="preserve" width="50mm" height="50mm" version="1.1" style="shape-rendering:geometricPrecision; text-rendering:geometricPrecision; image-rendering:optimizeQuality; fill-rule:evenodd; clip-rule:evenodd"
viewBox="0 0 5000 5000"
 xmlns:xlink="http://www.w3.org/1999/xlink">
 <defs>
  <style type="text/css">
   <![CDATA[
    .str0 {stroke:black;stroke-width:169.33}
    .fil0 {fill:none}
   ]]>
  </style>
 </defs>
 <g id="Слой_x0020_1">
  <metadata id="CorelCorpID_0Corel-Layer"/>
  <g id="Половина">
   <path class="fil0 str0" d="M2500 4871c-341,0 -682,0 -1024,0 -193,0 -353,-69 -395,-375l-500 -3382 -256 0c0,-325 359,-618 618,-618l1557 0"/>
   <line class="fil0 str0" x1="581" y1="1114" x2="2500" y2= "1114" />
   <line class="fil0 str0" x1="1211" y1="1637" x2="1555" y2= "4270" />
   <line class="fil0 str0" x1="2049" y1="1620" x2="2172" y2= "4270" />
   <path class="fil0 str0" d="M1870 496c0,-423 170,-404 630,-404"/>
  </g>
  <g id="Половина_0">
   <path class="fil0 str0" d="M2500 4871c341,0 682,0 1024,0 193,0 353,-69 395,-375l500 -3382 256 0c0,-325 -359,-618 -618,-618l-1557 0"/>
   <line class="fil0 str0" x1="4419" y1="1114" x2="2500" y2= "1114" />
   <line class="fil0 str0" x1="3789" y1="1637" x2="3445" y2= "4270" />
   <line class="fil0 str0" x1="2951" y1="1620" x2="2828" y2= "4270" />
   <path class="fil0 str0" d="M3130 496c0,-423 -170,-404 -630,-404"/>
  </g>
  <line class="fil0 str0" x1="2288" y1="1114" x2="2696" y2= "1114" />
  <line class="fil0 str0" x1="2332" y1="496" x2="2621" y2= "496" />
  <line class="fil0 str0" x1="2533" y1="92" x2="2471" y2= "92" />
  <line class="fil0 str0" x1="2394" y1="4871" x2="2616" y2= "4871" />
 </g>
</svg>
